# xmcd
#
# Track frame offsets:
#	150
#	13870
#	28418
#	43398
#	59488
#	71225
#	91965
#	110440
#	126850
#	143593
#	156095
#	171733
#	183413
#	199838
#
# Disc length: 2934 seconds
#
# Revision: 1
# Processed by: cddbd v1.5.1PL0 Copyright (c) Steve Scherf et al.
# Submitted via: CDex 1.50Beta5
#
DISCID=d80b740e
DTITLE=ニニ・ロッソ - ベスト&ベスト
DYEAR=1900
DGENRE=
TTITLE0=夜空のトランペット
TTITLE1=夕焼けのトランペット
TTITLE2=さすらいのマーチ
TTITLE3=星空のブルース
TTITLE4=真夜中のブルース
TTITLE5=この素晴らしい世界
TTITLE6=皆殺しの歌
TTITLE7=スターダスト
TTITLE8=エストレリータ
TTITLE9=太陽がいっぱい
TTITLE10=ある愛の詩
TTITLE11=ゴッド・ファーザー〜愛のテーマ
TTITLE12=オー・ソレ・ミオ
TTITLE13=アリベデルチ・ローマ
EXTD=
EXTT0=
EXTT1=
EXTT2=
EXTT3=
EXTT4=
EXTT5=
EXTT6=
EXTT7=
EXTT8=
EXTT9=
EXTT10=
EXTT11=
EXTT12=
EXTT13=
PLAYORDER=
